<?xml version="1.0" encoding="utf-8"?>
<!-- Generator: Adobe Illustrator 16.0.0, SVG Export Plug-In . SVG Version: 6.00 Build 0)  -->
<!DOCTYPE svg PUBLIC "-//W3C//DTD SVG 1.0//EN" "http://www.w3.org/TR/2001/REC-SVG-20010904/DTD/svg10.dtd">
<svg version="1.0" id="Layer_1" xmlns="http://www.w3.org/2000/svg" xmlns:xlink="http://www.w3.org/1999/xlink" x="0px" y="0px"
	 width="100px" height="100px" viewBox="0 0 100 100" enable-background="new 0 0 100 100" xml:space="preserve">
<path fill="#FFB74D" d="M42.726,10C35.698,10,30,15.699,30,22.727s5.698,12.727,12.727,12.727c7.029,0,12.727-5.699,12.727-12.727
	S49.755,10,42.726,10z M42.728,28.181c-3.008,0-5.456-2.446-5.456-5.454s2.448-5.454,5.456-5.454s5.455,2.446,5.455,5.454
	S45.735,28.181,42.728,28.181z"/>
<path fill="#FFB74D" d="M22.726,64.547c-7.028,0-12.727,5.698-12.727,12.727S15.698,90,22.726,90
	c7.028,0,12.727-5.698,12.727-12.727S29.754,64.547,22.726,64.547z M22.728,82.729c-3.008,0-5.456-2.446-5.456-5.456
	c0-3.008,2.448-5.454,5.456-5.454c3.008,0,5.454,2.446,5.454,5.454C28.182,80.283,25.735,82.729,22.728,82.729z"/>
<path fill="#263238" d="M19.557,64.945c-1.47-3.476-2.285-7.297-2.285-11.308c0-10.617,5.71-19.879,14.205-24.961
	c-0.941-1.776-1.477-3.8-1.477-5.95c0-0.535,0.037-1.062,0.101-1.579C18.192,27.123,9.999,39.409,9.999,53.638
	c0,5.387,1.205,10.484,3.306,15.08C14.951,66.906,17.112,65.572,19.557,64.945z"/>
<path fill="#263238" d="M75.368,51.962c0.621-0.094,1.257-0.143,1.904-0.143c1.94,0,3.779,0.436,5.425,1.212
	c-0.28-16.955-12.163-31.069-28.055-34.775c0.522,1.391,0.811,2.896,0.811,4.47c0,1.084-0.137,2.136-0.393,3.141
	C66.365,29.408,74.667,39.668,75.368,51.962z"/>
<path fill="#FFB74D" d="M77.272,51.819c-7.024,0-12.725,5.698-12.725,12.727c0,7.027,5.7,12.727,12.725,12.727
	c7.032,0,12.729-5.699,12.729-12.727C90.001,57.518,84.305,51.819,77.272,51.819z M77.272,70.001c-3.008,0-5.455-2.447-5.455-5.454
	c0-3.008,2.447-5.455,5.455-5.455s5.456,2.447,5.456,5.455C82.729,67.554,80.28,70.001,77.272,70.001z"/>
<path fill="#263238" d="M67.897,73.147c-5.324,5.87-12.989,9.582-21.534,9.582c-4.012,0-7.833-0.815-11.31-2.286
	c-0.626,2.444-1.96,4.604-3.771,6.25C35.881,88.796,40.975,90,46.364,90c11.221,0,21.25-5.093,27.919-13.085
	C71.787,76.313,69.578,74.979,67.897,73.147z"/>
</svg>
