<?xml version="1.0" encoding="utf-8"?>
<!-- Generator: Adobe Illustrator 16.0.0, SVG Export Plug-In . SVG Version: 6.00 Build 0)  -->
<!DOCTYPE svg PUBLIC "-//W3C//DTD SVG 1.0//EN" "http://www.w3.org/TR/2001/REC-SVG-20010904/DTD/svg10.dtd">
<svg version="1.0" id="Layer_1" xmlns="http://www.w3.org/2000/svg" xmlns:xlink="http://www.w3.org/1999/xlink" x="0px" y="0px"
	 width="100px" height="100px" viewBox="0 0 100 100" enable-background="new 0 0 100 100" xml:space="preserve">
<path fill="#263238" d="M83.333,90c0-18.408-14.925-33.334-33.333-33.334c-18.409,0-33.333,14.926-33.333,33.334H10
	c0-22.09,17.91-40,40-40s40,17.91,40,40H83.333z"/>
<path fill="#FFB74D" d="M56.667,10c0,18.409,14.925,33.333,33.333,33.333V50c-22.09,0-40-17.91-40-40H56.667z"/>
<path fill="#FFB74D" d="M80,10c-5.523,0-10,4.479-10,10.002c0,5.521,4.477,10,10,10s10-4.479,10-10C90,14.479,85.523,10,80,10z
	 M80,23.335c-1.843,0-3.333-1.494-3.333-3.333c0-1.843,1.49-3.335,3.333-3.335s3.333,1.493,3.333,3.335
	C83.333,21.841,81.843,23.335,80,23.335z"/>
<path fill="#263238" d="M26.667,10C17.464,10,10,17.463,10,26.667c0,9.205,7.464,16.667,16.667,16.667
	c9.205,0,16.666-7.462,16.666-16.667C43.333,17.463,35.872,10,26.667,10z M26.667,36.667c-5.521,0-10-4.477-10-10
	c0-5.522,4.479-10,10-10c5.521,0,10,4.478,10,10C36.667,32.19,32.188,36.667,26.667,36.667z"/>
<path fill="#FFB74D" d="M50,63.334c-7.363,0-13.333,5.971-13.333,13.333C36.667,84.03,42.637,90,50,90s13.333-5.97,13.333-13.333
	C63.333,69.305,57.363,63.334,50,63.334z M50,83.333c-3.682,0-6.667-2.983-6.667-6.666S46.318,70,50,70
	c3.682,0,6.667,2.984,6.667,6.667S53.682,83.333,50,83.333z"/>
</svg>
