<?xml version="1.0" encoding="utf-8"?>
<!-- Generator: Adobe Illustrator 16.0.0, SVG Export Plug-In . SVG Version: 6.00 Build 0)  -->
<!DOCTYPE svg PUBLIC "-//W3C//DTD SVG 1.0//EN" "http://www.w3.org/TR/2001/REC-SVG-20010904/DTD/svg10.dtd">
<svg version="1.0" id="Layer_1" xmlns="http://www.w3.org/2000/svg" xmlns:xlink="http://www.w3.org/1999/xlink" x="0px" y="0px"
	 width="100px" height="100px" viewBox="0 0 100 100" enable-background="new 0 0 100 100" xml:space="preserve">
<path fill="#263238" d="M53.333,10v6.691c16.851,1.681,30,15.952,30,33.309c0,17.354-13.149,31.624-30,33.305V90
	C73.863,88.298,90,71.052,90,50C90,28.945,73.863,11.706,53.333,10z"/>
<path fill="#263238" d="M46.667,83.305c-16.843-1.681-30-15.951-30-33.305c0-17.355,13.157-31.628,30-33.309V10
	C26.14,11.706,10,28.945,10,50c0,21.052,16.14,38.298,36.667,40V83.305z"/>
<path fill="#FFB74D" d="M30.3,46.667C31.888,37.21,40.091,30,50,30s18.111,7.21,19.7,16.667h6.735
	C74.795,33.516,63.602,23.333,50,23.333c-13.594,0-24.792,10.183-26.436,23.334H30.3z"/>
<path fill="#FFB74D" d="M69.7,53.333C68.111,62.786,59.909,70,50,70s-18.112-7.214-19.7-16.667h-6.735
	C25.208,66.484,36.406,76.667,50,76.667c13.602,0,24.795-10.183,26.436-23.334H69.7z"/>
<path fill="#FFB74D" d="M50,36.667c-7.363,0-13.333,5.97-13.333,13.333S42.637,63.333,50,63.333c7.366,0,13.333-5.97,13.333-13.333
	S57.366,36.667,50,36.667z M50,56.667c-3.682,0-6.667-2.985-6.667-6.667c0-3.682,2.985-6.667,6.667-6.667
	c3.686,0,6.667,2.985,6.667,6.667C56.667,53.682,53.686,56.667,50,56.667z"/>
</svg>
