<?xml version="1.0" encoding="utf-8"?>
<!-- Generator: Adobe Illustrator 16.0.0, SVG Export Plug-In . SVG Version: 6.00 Build 0)  -->
<!DOCTYPE svg PUBLIC "-//W3C//DTD SVG 1.0//EN" "http://www.w3.org/TR/2001/REC-SVG-20010904/DTD/svg10.dtd">
<svg version="1.0" id="Layer_1" xmlns="http://www.w3.org/2000/svg" xmlns:xlink="http://www.w3.org/1999/xlink" x="0px" y="0px"
	 width="100px" height="100px" viewBox="0 0 100 100" enable-background="new 0 0 100 100" xml:space="preserve">
<path fill="#263238" d="M83.333,50c0-11.966-14.925-21.667-33.333-21.667c-18.41,0-33.333,9.701-33.333,21.667
	c0,3.281,1.154,6.38,3.161,9.167c-2.007,2.786-3.161,5.885-3.161,9.166C16.667,80.303,31.59,90,50,90
	c18.408,0,33.333-9.697,33.333-21.667c0-3.281-1.155-6.38-3.16-9.166C82.178,56.38,83.333,53.281,83.333,50z M50,83.333
	c-15.714,0-26.667-7.903-26.667-15c0-1.426,0.46-2.881,1.294-4.3C30.742,68.698,39.83,71.667,50,71.667
	c10.169,0,19.258-2.969,25.371-7.634c0.833,1.419,1.296,2.874,1.296,4.3C76.667,75.43,65.716,83.333,50,83.333z M50,65
	c-15.714,0-26.667-7.902-26.667-15c0-7.095,10.952-15,26.667-15c15.716,0,26.667,7.905,26.667,15C76.667,57.098,65.716,65,50,65z"/>
<circle fill="#FFB74D" cx="15" cy="31.667" r="5"/>
<circle fill="#FFB74D" cx="85" cy="31.667" r="5"/>
<circle fill="#FFB74D" cx="50" cy="15" r="5"/>
<path fill="#FFB74D" d="M55,48.333c0,2.765-2.236,5-5,5c-2.764,0-5-2.235-5-5c0-2.765,2.236-5,5-5C52.764,43.333,55,45.57,55,48.333
	z"/>
</svg>
