<?xml version="1.0" encoding="utf-8"?>
<!-- Generator: Adobe Illustrator 16.0.0, SVG Export Plug-In . SVG Version: 6.00 Build 0)  -->
<!DOCTYPE svg PUBLIC "-//W3C//DTD SVG 1.0//EN" "http://www.w3.org/TR/2001/REC-SVG-20010904/DTD/svg10.dtd">
<svg version="1.0" id="Layer_1" xmlns="http://www.w3.org/2000/svg" xmlns:xlink="http://www.w3.org/1999/xlink" x="0px" y="0px"
	 width="100px" height="100px" viewBox="0 0 100 100" enable-background="new 0 0 100 100" xml:space="preserve">
<path fill="#263238" d="M50,58.615L10,34.98V90l40-23.637L90,90V34.98L50,58.615z M16.667,78.313V46.667L43.448,62.49L16.667,78.313
	z M83.333,78.313L56.553,62.49l26.78-15.824V78.313z"/>
<path fill="#FFB74D" d="M30,10c-7.352,0-13.333,5.98-13.333,13.333c0,7.352,5.981,13.333,13.333,13.333s13.333-5.981,13.333-13.333
	C43.333,15.98,37.352,10,30,10z M30,30c-3.68,0-6.667-2.99-6.667-6.667c0-3.677,2.987-6.667,6.667-6.667s6.667,2.99,6.667,6.667
	C36.667,27.01,33.68,30,30,30z"/>
<path fill="#FFB74D" d="M70,10c-7.354,0-13.333,5.98-13.333,13.333c0,7.352,5.979,13.333,13.333,13.333s13.333-5.981,13.333-13.333
	C83.333,15.98,77.354,10,70,10z M70,30c-3.675,0-6.667-2.99-6.667-6.667c0-3.677,2.992-6.667,6.667-6.667s6.667,2.99,6.667,6.667
	C76.667,27.01,73.675,30,70,30z"/>
</svg>
