<?xml version="1.0" encoding="utf-8"?>
<!-- Generator: Adobe Illustrator 16.0.0, SVG Export Plug-In . SVG Version: 6.00 Build 0)  -->
<!DOCTYPE svg PUBLIC "-//W3C//DTD SVG 1.0//EN" "http://www.w3.org/TR/2001/REC-SVG-20010904/DTD/svg10.dtd">
<svg version="1.0" id="Layer_1" xmlns="http://www.w3.org/2000/svg" xmlns:xlink="http://www.w3.org/1999/xlink" x="0px" y="0px"
	 width="100px" height="100px" viewBox="0 0 100 100" enable-background="new 0 0 100 100" xml:space="preserve">
<path fill="#263238" d="M50,23.333c-14.729,0-26.667,11.938-26.667,26.667c0,14.727,11.938,26.667,26.667,26.667
	c14.727,0,26.667-11.94,26.667-26.667C76.667,35.271,64.727,23.333,50,23.333z M50,30c9.904,0,18.107,7.21,19.7,16.667H49.527
	c-1.487-5.741-6.656-10-12.861-10c-0.583,0-1.139,0.099-1.702,0.17C38.63,32.654,44,30,50,30z M30,50
	c0-3.682,2.984-6.667,6.667-6.667c3.682,0,6.667,2.985,6.667,6.667c0,3.682-2.984,6.667-6.667,6.667C32.984,56.667,30,53.682,30,50z
	 M50,70c-6,0-11.367-2.656-15.034-6.839c0.563,0.073,1.117,0.172,1.7,0.172c6.205,0,11.374-4.261,12.861-10H69.7
	C68.107,62.786,59.904,70,50,70z"/>
<circle fill="#FFB74D" cx="15" cy="50" r="5"/>
<circle fill="#FFB74D" cx="85" cy="50" r="5"/>
</svg>
