<?xml version="1.0" encoding="utf-8"?>
<!-- Generator: Adobe Illustrator 16.0.0, SVG Export Plug-In . SVG Version: 6.00 Build 0)  -->
<!DOCTYPE svg PUBLIC "-//W3C//DTD SVG 1.0//EN" "http://www.w3.org/TR/2001/REC-SVG-20010904/DTD/svg10.dtd">
<svg version="1.0" id="Layer_1" xmlns="http://www.w3.org/2000/svg" xmlns:xlink="http://www.w3.org/1999/xlink" x="0px" y="0px"
	 width="100px" height="100px" viewBox="0 0 100 100" enable-background="new 0 0 100 100" xml:space="preserve">
<path fill="#FFB74D" d="M90,52.396l-0.003-4.798c-13.513-3.63-21.533-17.52-17.92-31.035l-4.16-2.396
	c-4.951,4.945-11.436,7.416-17.92,7.416c-6.488,0-12.972-2.471-17.92-7.416l-4.157,2.403c0.303,1.133,0.495,2.266,0.638,3.395
	c5.892,5.332,13.428,8.285,21.439,8.285c5.167,0,10.14-1.237,14.605-3.532c0.525,10.248,5.988,19.704,14.602,25.28
	c-8.618,5.582-14.077,15.048-14.599,25.296c2.449,1.268,4.747,2.852,6.837,4.742C69.875,67.664,77.617,55.723,90,52.396z"/>
<path fill="#263238" d="M71.442,80.035c-5.896-5.334-13.433-8.287-21.439-8.287c-5.161,0-10.128,1.234-14.593,3.525V75.25
	c-0.534-10.23-5.993-19.678-14.59-25.247c8.601-5.569,14.056-15.022,14.586-25.254l-0.217-0.152
	c-2.373-1.249-4.602-2.795-6.632-4.633C30.125,32.337,22.381,44.28,10,47.604l0.003,4.798c13.512,3.629,21.533,17.52,17.92,31.035
	l4.157,2.396c4.951-4.945,11.436-7.42,17.923-7.42c6.483,0,12.971,2.475,17.92,7.42l4.157-2.402L71.442,80.035z"/>
</svg>
