<?xml version="1.0" encoding="utf-8"?>
<!-- Generator: Adobe Illustrator 16.0.0, SVG Export Plug-In . SVG Version: 6.00 Build 0)  -->
<!DOCTYPE svg PUBLIC "-//W3C//DTD SVG 1.0//EN" "http://www.w3.org/TR/2001/REC-SVG-20010904/DTD/svg10.dtd">
<svg version="1.0" id="Layer_1" xmlns="http://www.w3.org/2000/svg" xmlns:xlink="http://www.w3.org/1999/xlink" x="0px" y="0px"
	 width="100px" height="100px" viewBox="0 0 100 100" enable-background="new 0 0 100 100" xml:space="preserve">
<path fill="#FFB74D" d="M68.334,16.666C60.983,16.666,55,22.643,55,30c0,7.351,5.983,13.333,13.334,13.333
	c7.35,0,13.333-5.982,13.333-13.333C81.667,22.643,75.684,16.666,68.334,16.666z M68.334,36.666c-3.676,0-6.667-2.991-6.667-6.666
	c0-3.679,2.991-6.667,6.667-6.667C72.009,23.333,75,26.321,75,30C75,33.675,72.009,36.666,68.334,36.666z"/>
<path fill="#FFB74D" d="M31.667,16.666c-7.351,0-13.333,5.977-13.333,13.334c0,7.351,5.983,13.333,13.333,13.333
	C39.017,43.333,45,37.351,45,30C45,22.643,39.017,16.666,31.667,16.666z M31.667,36.666C27.992,36.666,25,33.675,25,30
	c0-3.679,2.992-6.667,6.667-6.667c3.675,0,6.667,2.988,6.667,6.667C38.333,33.675,35.342,36.666,31.667,36.666z"/>
<path fill="#263238" d="M81.667,30c0,2.427-0.656,4.703-1.794,6.666h3.461v40h-30v-40h3.461C55.655,34.703,55,32.427,55,30H45
	c0,2.427-0.656,4.703-1.794,6.666h3.461v40h-30v-40h3.461c-1.139-1.963-1.794-4.239-1.794-6.666H10v53.334h80V30H81.667z"/>
</svg>
