<?xml version="1.0" encoding="utf-8"?>
<!-- Generator: Adobe Illustrator 16.0.0, SVG Export Plug-In . SVG Version: 6.00 Build 0)  -->
<!DOCTYPE svg PUBLIC "-//W3C//DTD SVG 1.0//EN" "http://www.w3.org/TR/2001/REC-SVG-20010904/DTD/svg10.dtd">
<svg version="1.0" id="Layer_1" xmlns="http://www.w3.org/2000/svg" xmlns:xlink="http://www.w3.org/1999/xlink" x="0px" y="0px"
	 width="100px" height="100px" viewBox="0 0 100 100" enable-background="new 0 0 100 100" xml:space="preserve">
<path fill="#FFB74D" d="M68.333,46.667c-11.97,0-21.667,9.694-21.667,21.667C46.667,80.3,56.363,90,68.333,90S90,80.3,90,68.333
	C90,56.359,80.303,46.667,68.333,46.667z M68.333,83.333c-8.287,0-15-6.715-15-15c0-8.287,6.713-15,15-15c8.288,0,15,6.713,15,15
	C83.333,76.618,76.621,83.333,68.333,83.333z"/>
<path fill="#263238" d="M76.667,10c-7.362,0-13.334,5.973-13.334,13.335c0,7.363-5.97,13.332-13.333,13.332
	c-7.363,0-13.333-5.969-13.333-13.333c0-7.362-5.97-13.333-13.334-13.333C15.972,10,10,15.97,10,23.333
	c0,7.362,5.972,13.333,13.333,13.333c7.363,0,13.332,5.969,13.332,13.333c0,7.362-5.968,13.333-13.332,13.333S10,69.305,10,76.667
	C10,84.03,15.97,90,23.333,90s13.333-5.975,13.333-13.333c0-22.087,17.907-40,40-40.002c7.363,0,13.334-5.97,13.334-13.333
	C90,15.973,84.029,10,76.667,10z M23.333,30c-3.684,0-6.667-2.984-6.667-6.667c0-3.685,2.983-6.667,6.667-6.667
	c3.683,0,6.667,2.982,6.667,6.667C30,27.016,27.017,30,23.333,30z M23.333,83.333c-3.684,0-6.667-2.988-6.667-6.666
	c0-3.687,2.983-6.667,6.667-6.667S30,72.98,30,76.667C30,80.345,27.017,83.333,23.333,83.333z M76.667,30
	C72.98,30,70,27.016,70,23.333c0-3.685,2.98-6.667,6.667-6.667c3.685,0,6.666,2.982,6.666,6.667C83.333,27.016,80.352,30,76.667,30z
	"/>
</svg>
