<?xml version="1.0" encoding="utf-8"?>
<!-- Generator: Adobe Illustrator 16.0.0, SVG Export Plug-In . SVG Version: 6.00 Build 0)  -->
<!DOCTYPE svg PUBLIC "-//W3C//DTD SVG 1.0//EN" "http://www.w3.org/TR/2001/REC-SVG-20010904/DTD/svg10.dtd">
<svg version="1.0" id="Layer_1" xmlns="http://www.w3.org/2000/svg" xmlns:xlink="http://www.w3.org/1999/xlink" x="0px" y="0px"
	 width="100px" height="100px" viewBox="0 0 100 100" enable-background="new 0 0 100 100" xml:space="preserve">
<path fill="#263238" d="M50,10H10v40c0,22.09,17.91,40,40,40h40V50C90,27.91,72.09,10,50,10z M83.333,83.333H50
	c-18.379,0-33.333-14.954-33.333-33.333V16.667H50c18.379,0,33.333,14.955,33.333,33.333V83.333z"/>
<path fill="#FFB74D" d="M50,23.333c-14.727,0-26.667,11.94-26.667,26.667c0,14.727,11.94,26.667,26.667,26.667
	S76.667,64.727,76.667,50C76.667,35.273,64.727,23.333,50,23.333z M50,70c-11.048,0-20-8.955-20-20c0-11.044,8.952-20,20-20
	c11.045,0,20,8.956,20,20C70,61.045,61.045,70,50,70z"/>
<path fill="#FFB74D" d="M50,36.667c-7.363,0-13.333,5.97-13.333,13.333c0,7.363,5.97,13.333,13.333,13.333S63.333,57.363,63.333,50
	C63.333,42.637,57.363,36.667,50,36.667z M50,56.667c-3.682,0-6.667-2.985-6.667-6.667c0-3.682,2.985-6.667,6.667-6.667
	c3.682,0,6.667,2.985,6.667,6.667C56.667,53.682,53.682,56.667,50,56.667z"/>
</svg>
