<?xml version="1.0" encoding="utf-8"?>
<!-- Generator: Adobe Illustrator 16.0.0, SVG Export Plug-In . SVG Version: 6.00 Build 0)  -->
<!DOCTYPE svg PUBLIC "-//W3C//DTD SVG 1.0//EN" "http://www.w3.org/TR/2001/REC-SVG-20010904/DTD/svg10.dtd">
<svg version="1.0" id="Layer_1" xmlns="http://www.w3.org/2000/svg" xmlns:xlink="http://www.w3.org/1999/xlink" x="0px" y="0px"
	 width="100px" height="100px" viewBox="0 0 100 100" enable-background="new 0 0 100 100" xml:space="preserve">
<path fill="#263238" d="M60,13.333H13.333c-1.832,0-3.333,1.5-3.333,3.333V30c0,1.832,1.501,3.333,3.333,3.333H60
	c1.833,0,3.333-1.501,3.333-3.333V16.667C63.333,14.833,61.833,13.333,60,13.333z M56.667,26.667h-40V20h40V26.667z"/>
<path fill="#FFB74D" d="M80,13.333c-5.521,0-10,4.479-10,10c0,5.521,4.479,10,10,10s10-4.479,10-10
	C90,17.813,85.521,13.333,80,13.333z M80,26.667c-1.839,0-3.333-1.495-3.333-3.333C76.667,21.497,78.161,20,80,20
	s3.333,1.497,3.333,3.333C83.333,25.172,81.839,26.667,80,26.667z"/>
<path fill="#263238" d="M86.667,40H40c-1.833,0-3.333,1.5-3.333,3.333v13.334c0,1.832,1.5,3.333,3.333,3.333h46.667
	C88.499,60,90,58.499,90,56.667V43.333C90,41.5,88.499,40,86.667,40z M83.333,53.333h-40v-6.667h40V53.333z"/>
<path fill="#FFB74D" d="M20,40c-5.521,0-10,4.479-10,10c0,5.521,4.479,10,10,10s10-4.479,10-10C30,44.479,25.521,40,20,40z
	 M20,53.333c-1.839,0-3.333-1.494-3.333-3.333c0-1.836,1.494-3.333,3.333-3.333s3.333,1.498,3.333,3.333
	C23.333,51.839,21.839,53.333,20,53.333z"/>
<path fill="#263238" d="M60,66.667H13.333C11.501,66.667,10,68.167,10,70v13.333c0,1.833,1.501,3.334,3.333,3.334H60
	c1.833,0,3.333-1.501,3.333-3.334V70C63.333,68.167,61.833,66.667,60,66.667z M56.667,80h-40v-6.667h40V80z"/>
<path fill="#FFB74D" d="M80,66.667c-5.521,0-10,4.479-10,10s4.479,10,10,10s10-4.479,10-10S85.521,66.667,80,66.667z M80,80
	c-1.839,0-3.333-1.497-3.333-3.333s1.494-3.334,3.333-3.334s3.333,1.498,3.333,3.334S81.839,80,80,80z"/>
</svg>
