<?xml version="1.0" encoding="utf-8"?>
<!-- Generator: Adobe Illustrator 16.0.0, SVG Export Plug-In . SVG Version: 6.00 Build 0)  -->
<!DOCTYPE svg PUBLIC "-//W3C//DTD SVG 1.0//EN" "http://www.w3.org/TR/2001/REC-SVG-20010904/DTD/svg10.dtd">
<svg version="1.0" id="Layer_1" xmlns="http://www.w3.org/2000/svg" xmlns:xlink="http://www.w3.org/1999/xlink" x="0px" y="0px"
	 width="100px" height="100px" viewBox="0 0 100 100" enable-background="new 0 0 100 100" xml:space="preserve">
<path fill="#263238" d="M90,34.167C90,20.82,79.18,10,65.834,10C59.769,10,54.241,12.25,50,15.938C45.755,12.25,40.231,10,34.167,10
	C20.82,10,10,20.82,10,34.167c0,6.064,2.25,11.592,5.938,15.833C12.25,54.241,10,59.769,10,65.834C10,79.18,20.82,90,34.167,90
	c6.064,0,11.588-2.249,15.833-5.938C54.241,87.751,59.769,90,65.834,90C79.18,90,90,79.18,90,65.834
	c0-6.065-2.249-11.593-5.938-15.834C87.754,45.758,90,40.228,90,34.167z M83.334,65.834c0,9.664-7.836,17.5-17.5,17.5
	c-7.031,0-13.051-4.171-15.834-10.15c-2.783,5.979-8.802,10.15-15.833,10.15c-9.665,0-17.5-7.836-17.5-17.5
	c0-7.031,4.169-13.051,10.149-15.834c-5.98-2.784-10.149-8.802-10.149-15.833c0-9.664,7.835-17.5,17.5-17.5
	c7.031,0,13.05,4.17,15.833,10.15c2.783-5.98,8.803-10.15,15.834-10.15c9.664,0,17.5,7.836,17.5,17.5
	c0,7.031-4.171,13.05-10.15,15.833C79.163,52.783,83.334,58.803,83.334,65.834z"/>
<path fill="#FFB74D" d="M50,73.184c-1.041-2.243-1.667-4.717-1.667-7.35c0-4.396,1.676-8.363,4.352-11.439l0.004,0.006
	c3.785,2.472,8.287,3.934,13.145,3.934c4.856,0,9.368-1.445,13.157-3.913l0.018-0.057c-1.607-1.83-3.589-3.323-5.825-4.364
	c-2.243,1.041-4.717,1.666-7.35,1.666c-4.398,0-8.366-1.676-11.439-4.354l0.01-0.007c2.468-3.782,3.93-8.281,3.93-13.138
	c0-4.856-1.445-9.369-3.91-13.154l-0.078-0.004c-1.82,1.604-3.309,3.58-4.346,5.809c1.042,2.243,1.667,4.717,1.667,7.35
	c0,4.395-1.677,8.362-4.352,11.439l-0.003-0.006c-3.786-2.471-8.288-3.933-13.145-3.933c-4.857,0-9.369,1.445-13.158,3.913
	l-0.001,0.074c1.604,1.821,3.58,3.309,5.809,4.347c2.243-1.042,4.717-1.667,7.351-1.667c4.395,0,8.366,1.676,11.438,4.355
	l-0.006,0.004c-2.471,3.785-3.932,8.284-3.932,13.142c0,4.855,1.445,9.368,3.913,13.153l0.091-0.011
	C47.484,77.376,48.966,75.405,50,73.184z"/>
</svg>
