<?xml version="1.0" encoding="utf-8"?>
<!-- Generator: Adobe Illustrator 16.0.0, SVG Export Plug-In . SVG Version: 6.00 Build 0)  -->
<!DOCTYPE svg PUBLIC "-//W3C//DTD SVG 1.0//EN" "http://www.w3.org/TR/2001/REC-SVG-20010904/DTD/svg10.dtd">
<svg version="1.0" id="Layer_1" xmlns="http://www.w3.org/2000/svg" xmlns:xlink="http://www.w3.org/1999/xlink" x="0px" y="0px"
	 width="100px" height="100px" viewBox="0 0 100 100" enable-background="new 0 0 100 100" xml:space="preserve">
<circle fill="#FFB74D" cx="83.333" cy="53.333" r="3.333"/>
<circle fill="#263238" cx="56.667" cy="21.667" r="5"/>
<path fill="#FFB74D" d="M76.667,63.333c-7.362,0-13.334,5.972-13.334,13.334C63.333,84.03,69.305,90,76.667,90S90,84.03,90,76.667
	C90,69.305,84.029,63.333,76.667,63.333z M76.667,83.333c-3.676,0-6.667-2.991-6.667-6.666C70,72.988,72.991,70,76.667,70
	c3.679,0,6.666,2.988,6.666,6.667C83.333,80.342,80.346,83.333,76.667,83.333z"/>
<path fill="#263238" d="M61.67,33.333C55.225,33.333,50,38.558,50,45c0,6.441,5.225,11.667,11.67,11.667
	c6.438,0,11.663-5.226,11.663-11.667C73.333,38.558,68.107,33.333,61.67,33.333z M61.67,50c-2.757,0-5.003-2.243-5.003-5
	s2.246-5,5.003-5c2.754,0,4.997,2.243,4.997,5S64.424,50,61.67,50z"/>
<path fill="#263238" d="M30,50c-11.048,0-20,8.955-20,19.997C10,81.045,18.952,90,30,90s20-8.955,20-20S41.048,50,30,50z M30,83.333
	c-7.354,0-13.333-5.981-13.333-13.336c0-7.351,5.979-13.33,13.333-13.33s13.333,5.979,13.333,13.33
	C43.333,77.352,37.354,83.333,30,83.333z"/>
<path fill="#FFB74D" d="M26.667,10C17.461,10,10,17.461,10,26.667c0,9.206,7.461,16.667,16.667,16.667
	c9.206,0,16.667-7.461,16.667-16.667C43.333,17.461,35.873,10,26.667,10z M26.667,36.667c-5.515,0-10-4.485-10-10
	c0-5.514,4.485-10,10-10c5.515,0,10,4.486,10,10C36.667,32.181,32.182,36.667,26.667,36.667z"/>
<path fill="#263238" d="M80.003,10C74.479,10,70,14.476,70,20s4.479,10,10.003,10C85.523,30,90,25.524,90,20S85.523,10,80.003,10z
	 M80.003,23.333c-1.839,0-3.336-1.494-3.336-3.333s1.497-3.333,3.336-3.333c1.836,0,3.33,1.494,3.33,3.333
	S81.839,23.333,80.003,23.333z"/>
</svg>
