<?xml version="1.0" encoding="utf-8"?>
<!-- Generator: Adobe Illustrator 16.0.0, SVG Export Plug-In . SVG Version: 6.00 Build 0)  -->
<!DOCTYPE svg PUBLIC "-//W3C//DTD SVG 1.0//EN" "http://www.w3.org/TR/2001/REC-SVG-20010904/DTD/svg10.dtd">
<svg version="1.0" id="Layer_1" xmlns="http://www.w3.org/2000/svg" xmlns:xlink="http://www.w3.org/1999/xlink" x="0px" y="0px"
	 width="100px" height="100px" viewBox="0 0 100 100" enable-background="new 0 0 100 100" xml:space="preserve">
<path fill="#FFB74D" d="M23.333,10c-5.521,0-10,4.479-10,10c0,5.523,4.479,10,10,10s10-4.477,10-10
	C33.333,14.479,28.854,10,23.333,10z M23.333,23.333C21.491,23.333,20,21.841,20,20c0-1.839,1.491-3.333,3.333-3.333
	c1.843,0,3.334,1.494,3.334,3.333C26.667,21.841,25.176,23.333,23.333,23.333z"/>
<path fill="#FFB74D" d="M50,10c-5.521,0-10,4.479-10,10c0,5.523,4.479,10,10,10c5.521,0,10-4.477,10-10C60,14.479,55.521,10,50,10z
	 M50,23.333c-1.843,0-3.333-1.492-3.333-3.333c0-1.839,1.49-3.333,3.333-3.333s3.333,1.494,3.333,3.333
	C53.333,21.841,51.843,23.333,50,23.333z"/>
<path fill="#FFB74D" d="M76.667,10c-5.521,0-10,4.479-10,10c0,5.523,4.479,10,10,10s10-4.477,10-10
	C86.667,14.479,82.188,10,76.667,10z M76.667,23.333c-1.843,0-3.334-1.492-3.334-3.333c0-1.839,1.491-3.333,3.334-3.333
	C78.509,16.667,80,18.161,80,20C80,21.841,78.509,23.333,76.667,23.333z"/>
<path fill="#263238" d="M80,36.667H20c-3.665,0-6.667,3.001-6.667,6.667v40C13.333,86.999,16.335,90,20,90h60
	c3.665,0,6.667-3.001,6.667-6.667v-40C86.667,39.668,83.665,36.667,80,36.667z M80,83.333H20v-40h60V83.333z"/>
</svg>
