<?xml version="1.0" encoding="utf-8"?>
<!-- Generator: Adobe Illustrator 16.0.0, SVG Export Plug-In . SVG Version: 6.00 Build 0)  -->
<!DOCTYPE svg PUBLIC "-//W3C//DTD SVG 1.0//EN" "http://www.w3.org/TR/2001/REC-SVG-20010904/DTD/svg10.dtd">
<svg version="1.0" id="Layer_1" xmlns="http://www.w3.org/2000/svg" xmlns:xlink="http://www.w3.org/1999/xlink" x="0px" y="0px"
	 width="100px" height="100px" viewBox="0 0 100 100" enable-background="new 0 0 100 100" xml:space="preserve">
<path fill="#263238" d="M50,13.333c-7.363,0-13.333,5.969-13.333,13.333c0,3.745,1.556,7.12,4.043,9.542L30.212,54.576l5.793,3.298
	l10.513-18.392C47.634,39.785,48.786,40,50,40c7.363,0,13.333-5.971,13.333-13.334S57.363,13.333,50,13.333z M50,33.333
	c-3.682,0-6.667-2.985-6.667-6.667C43.333,22.984,46.318,20,50,20c3.682,0,6.667,2.984,6.667,6.666
	C56.667,30.348,53.682,33.333,50,33.333z"/>
<path fill="#FFB74D" d="M36.193,70c-1.486-5.739-6.655-10-12.86-10C15.971,60,10,65.97,10,73.333
	c0,7.362,5.971,13.334,13.333,13.334c6.205,0,11.374-4.262,12.86-10h20.772V70H36.193z M23.333,80c-3.682,0-6.666-2.984-6.666-6.667
	s2.984-6.666,6.666-6.666c3.683,0,6.667,2.983,6.667,6.666S27.016,80,23.333,80z"/>
<path fill="#263238" d="M76.667,60c-1.215,0-2.367,0.215-3.483,0.518L62.673,42.125l-5.795,3.298l10.498,18.369
	c-2.485,2.422-4.043,5.795-4.043,9.541c0,7.362,5.972,13.334,13.334,13.334S90,80.695,90,73.333C90,65.97,84.029,60,76.667,60z
	 M76.667,80C72.984,80,70,77.016,70,73.333s2.984-6.666,6.667-6.666s6.666,2.983,6.666,6.666S80.35,80,76.667,80z"/>
</svg>
