<?xml version="1.0" encoding="utf-8"?>
<!-- Generator: Adobe Illustrator 16.0.0, SVG Export Plug-In . SVG Version: 6.00 Build 0)  -->
<!DOCTYPE svg PUBLIC "-//W3C//DTD SVG 1.0//EN" "http://www.w3.org/TR/2001/REC-SVG-20010904/DTD/svg10.dtd">
<svg version="1.0" id="Layer_1" xmlns="http://www.w3.org/2000/svg" xmlns:xlink="http://www.w3.org/1999/xlink" x="0px" y="0px"
	 width="100px" height="100px" viewBox="0 0 100 100" enable-background="new 0 0 100 100" xml:space="preserve">
<path fill="#FFB74D" d="M23.333,26.667c0,3.684-2.981,6.667-6.666,6.667c-3.687,0-6.667-2.982-6.667-6.667
	C10,22.983,12.98,20,16.667,20C20.352,20,23.333,22.983,23.333,26.667z"/>
<circle fill="#FFB74D" cx="83.333" cy="26.667" r="6.667"/>
<path fill="#FFB74D" d="M23.333,73.334c0,3.684-2.981,6.666-6.666,6.666C12.98,80,10,77.018,10,73.334
	c0-3.686,2.98-6.668,6.667-6.668C20.352,66.666,23.333,69.648,23.333,73.334z"/>
<path fill="#FFB74D" d="M90,73.334C90,77.018,87.016,80,83.333,80s-6.666-2.982-6.666-6.666c0-3.686,2.983-6.668,6.666-6.668
	S90,69.648,90,73.334z"/>
<rect x="30" y="23.333" fill="#263238" width="40" height="6.667"/>
<rect x="30" y="70" fill="#263238" width="40" height="6.666"/>
<rect x="13.333" y="40" fill="#263238" width="6.667" height="20"/>
<rect x="80" y="40" fill="#263238" width="6.667" height="20"/>
</svg>
