<?xml version="1.0" encoding="utf-8"?>
<!-- Generator: Adobe Illustrator 16.0.0, SVG Export Plug-In . SVG Version: 6.00 Build 0)  -->
<!DOCTYPE svg PUBLIC "-//W3C//DTD SVG 1.0//EN" "http://www.w3.org/TR/2001/REC-SVG-20010904/DTD/svg10.dtd">
<svg version="1.0" id="Layer_1" xmlns="http://www.w3.org/2000/svg" xmlns:xlink="http://www.w3.org/1999/xlink" x="0px" y="0px"
	 width="100px" height="100px" viewBox="0 0 100 100" enable-background="new 0 0 100 100" xml:space="preserve">
<path fill="#FFB74D" d="M63.333,23.333L36.664,50.001l26.667,26.666L90,50L63.333,23.333z M63.33,67.239L46.091,50.001
	l17.242-17.239L80.573,50L63.33,67.239z"/>
<path fill="#263238" d="M50.801,64.139C47.179,67.757,42.179,70,36.664,70c-11.027,0-19.997-8.973-19.997-20
	c0-11.029,8.97-20,19.997-20c5.515,0,10.516,2.242,14.137,5.865l4.719-4.719c-4.824-4.828-11.492-7.813-18.856-7.813
	C21.94,23.333,10,35.271,10,50c0,14.727,11.94,26.667,26.664,26.667c7.363,0,14.029-2.985,18.857-7.81L50.801,64.139z"/>
</svg>
