<?xml version="1.0" encoding="utf-8"?>
<!-- Generator: Adobe Illustrator 16.0.0, SVG Export Plug-In . SVG Version: 6.00 Build 0)  -->
<!DOCTYPE svg PUBLIC "-//W3C//DTD SVG 1.0//EN" "http://www.w3.org/TR/2001/REC-SVG-20010904/DTD/svg10.dtd">
<svg version="1.0" id="Layer_1" xmlns="http://www.w3.org/2000/svg" xmlns:xlink="http://www.w3.org/1999/xlink" x="0px" y="0px"
	 width="100px" height="100px" viewBox="0 0 100 100" enable-background="new 0 0 100 100" xml:space="preserve">
<circle fill="#263238" cx="48.332" cy="15" r="5"/>
<circle fill="#263238" cx="15" cy="48.333" r="5"/>
<circle fill="#FFB74D" cx="78.331" cy="85" r="5"/>
<path fill="#FFB74D" d="M43.332,26.667c-3.395,0-6.546,1.027-9.18,2.771L29,24.287c0.622-1.303,1-2.745,1-4.287
	c0-5.52-4.479-10-10-10s-10,4.479-10,10c0,5.523,4.479,10,10,10c1.543,0,2.98-0.378,4.287-0.999l5.153,5.151
	c-1.745,2.633-2.773,5.785-2.773,9.181c0,9.205,7.461,16.667,16.666,16.667c9.206,0,16.666-7.462,16.666-16.667
	C59.998,34.129,52.538,26.667,43.332,26.667z M20,23.333c-1.841,0-3.333-1.493-3.333-3.334c0-1.84,1.492-3.333,3.333-3.333
	c1.843,0,3.333,1.493,3.333,3.333C23.333,21.84,21.843,23.333,20,23.333z M43.332,53.333c-5.522,0-9.999-4.478-9.999-10
	c0-5.521,4.479-10,9.999-10c5.521,0,10,4.479,10,10C53.332,48.855,48.854,53.333,43.332,53.333z"/>
<path fill="#263238" d="M79.998,51.657V36.195C85.738,34.71,90.004,29.539,90,23.332C90.004,15.972,84.029,9.999,76.671,10
	c-7.366-0.001-13.336,5.972-13.336,13.333c0,6.203,4.261,11.37,9.996,12.859v15.467c-3.873,1.379-6.663,5.043-6.663,9.389
	c0,5.52,4.477,10,9.996,9.996c5.523,0,10-4.479,10.003-10C86.667,56.698,83.874,53.034,79.998,51.657z M70.001,23.333
	c0-3.682,2.985-6.667,6.667-6.667c3.686,0,6.666,2.982,6.666,6.667c0,3.683-2.984,6.667-6.666,6.665
	C72.986,29.999,70.001,27.017,70.001,23.333z M76.664,64.381c-1.839,0-3.333-1.493-3.333-3.333c0-1.842,1.494-3.336,3.333-3.334
	c1.843,0,3.337,1.488,3.334,3.334C79.998,62.888,78.507,64.381,76.664,64.381z"/>
<path fill="#263238" d="M50.002,63.329c-6.208,0-11.376,4.262-12.864,10.004h-7.75c-1.376-3.874-5.039-6.667-9.385-6.667
	C14.48,66.666,10,71.149,10,76.667c0,5.521,4.479,10.002,10,9.999c4.349,0,8.012-2.793,9.388-6.666h7.755
	c1.483,5.737,6.655,9.997,12.856,9.997c7.362,0.002,13.333-5.969,13.333-13.334C63.332,69.303,57.361,63.329,50.002,63.329z M20,80
	c-1.841,0-3.333-1.491-3.333-3.333c0-1.84,1.497-3.334,3.333-3.334c1.843,0,3.337,1.49,3.333,3.334C23.333,78.509,21.843,80,20,80z
	 M49.999,83.33c-3.683,0-6.667-2.981-6.667-6.663c0-3.686,2.988-6.67,6.667-6.668c3.685,0,6.666,2.982,6.666,6.668
	C56.669,80.345,53.684,83.33,49.999,83.33z"/>
</svg>
