<?xml version="1.0" encoding="utf-8"?>
<!-- Generator: Adobe Illustrator 16.0.0, SVG Export Plug-In . SVG Version: 6.00 Build 0)  -->
<!DOCTYPE svg PUBLIC "-//W3C//DTD SVG 1.0//EN" "http://www.w3.org/TR/2001/REC-SVG-20010904/DTD/svg10.dtd">
<svg version="1.0" id="Layer_1" xmlns="http://www.w3.org/2000/svg" xmlns:xlink="http://www.w3.org/1999/xlink" x="0px" y="0px"
	 width="100px" height="100px" viewBox="0 0 100 100" enable-background="new 0 0 100 100" xml:space="preserve">
<circle fill="#FFB74D" cx="15" cy="50" r="5"/>
<circle fill="#FFB74D" cx="85" cy="50" r="5"/>
<path fill="#263238" d="M67.708,50c9.375-3.833,15.625-10.601,15.625-18.333C83.333,19.701,68.408,10,50,10
	c-18.41,0-33.333,9.701-33.333,21.667c0,7.732,6.25,14.5,15.625,18.333c-9.375,3.835-15.625,10.6-15.625,18.333
	C16.667,80.303,31.59,90,50,90c18.408,0,33.333-9.697,33.333-21.667C83.333,60.6,77.083,53.835,67.708,50z M23.333,31.667
	c0-7.094,10.952-15,26.667-15c15.716,0,26.667,7.906,26.667,15c0,7.095-10.951,15-26.667,15
	C34.286,46.667,23.333,38.761,23.333,31.667z M50,83.333c-15.714,0-26.667-7.903-26.667-15s10.952-15,26.667-15
	c15.716,0,26.667,7.903,26.667,15S65.716,83.333,50,83.333z"/>
</svg>
