<?xml version="1.0" encoding="utf-8"?>
<!-- Generator: Adobe Illustrator 16.0.0, SVG Export Plug-In . SVG Version: 6.00 Build 0)  -->
<!DOCTYPE svg PUBLIC "-//W3C//DTD SVG 1.0//EN" "http://www.w3.org/TR/2001/REC-SVG-20010904/DTD/svg10.dtd">
<svg version="1.0" id="Layer_1" xmlns="http://www.w3.org/2000/svg" xmlns:xlink="http://www.w3.org/1999/xlink" x="0px" y="0px"
	 width="100px" height="100px" viewBox="0 0 100 100" enable-background="new 0 0 100 100" xml:space="preserve">
<path fill="#FFB74D" d="M30,30c-11.028,0-20,8.974-20,20c0,11.03,8.972,20,20,20c11.029,0,20-8.97,20-20C50,38.974,41.029,30,30,30z
	 M30,63.334c-7.352,0-13.333-5.98-13.333-13.334c0-7.351,5.981-13.333,13.333-13.333S43.333,42.649,43.333,50
	C43.333,57.354,37.352,63.334,30,63.334z"/>
<path fill="#263238" d="M69.59,66.666c-2.79,0-5.318,1.024-7.324,2.656L47.908,58.892c-1,2.007-2.327,3.822-3.911,5.377
	l-0.011,0.015l14.53,10.556c-0.354,1.108-0.594,2.268-0.594,3.495C57.923,84.779,63.146,90,69.59,90
	c6.445,0,11.667-5.221,11.667-11.666C81.257,71.892,76.035,66.666,69.59,66.666z M69.59,83.334c-2.757,0-5-2.243-5-5
	c0-2.758,2.243-5,5-5s5,2.242,5,5C74.59,81.091,72.347,83.334,69.59,83.334z"/>
<path fill="#263238" d="M78.334,38.333c-5.277,0-9.682,3.527-11.127,8.333H49.716C49.899,47.751,50,48.864,50,50
	c0,1.136-0.101,2.249-0.283,3.334h17.49c1.442,4.808,5.85,8.332,11.127,8.332C84.776,61.666,90,56.445,90,50
	C90,43.558,84.776,38.333,78.334,38.333z M78.334,55c-2.758,0-5-2.243-5-5c0-2.757,2.242-5,5-5c2.757,0,5,2.243,5,5
	C83.334,52.757,81.091,55,78.334,55z"/>
<path fill="#263238" d="M69.59,10c-6.442,0-11.667,5.224-11.667,11.667c0,1.226,0.241,2.385,0.593,3.495L43.984,35.716l0.011,0.016
	c1.585,1.555,2.912,3.371,3.912,5.377l14.358-10.432c2.009,1.634,4.533,2.656,7.322,2.656c6.445,0,11.669-5.223,11.669-11.667
	C81.257,15.224,76.035,10,69.59,10z M69.59,26.667c-2.757,0-5-2.242-5-5c0-2.757,2.243-5,5-5s5,2.243,5,5
	C74.59,24.424,72.347,26.667,69.59,26.667z"/>
</svg>
