<?xml version="1.0" encoding="utf-8"?>
<!-- Generator: Adobe Illustrator 16.0.0, SVG Export Plug-In . SVG Version: 6.00 Build 0)  -->
<!DOCTYPE svg PUBLIC "-//W3C//DTD SVG 1.0//EN" "http://www.w3.org/TR/2001/REC-SVG-20010904/DTD/svg10.dtd">
<svg version="1.0" id="Layer_1" xmlns="http://www.w3.org/2000/svg" xmlns:xlink="http://www.w3.org/1999/xlink" x="0px" y="0px"
	 width="100px" height="100px" viewBox="0 0 100 100" enable-background="new 0 0 100 100" xml:space="preserve">
<path fill="#263238" d="M73.439,63.552H55.273l11.072-11.194c2.5-2.496,3.872-5.821,3.872-9.349c0-3.536-1.372-6.856-3.869-9.353
	c-1.801-1.801-4.03-3.018-6.461-3.559c1.253-2.048,1.923-4.406,1.923-6.875C61.811,15.932,55.88,10,48.587,10H26.558
	c-7.292,0-13.225,5.93-13.225,13.223c0,7.291,5.932,13.226,13.222,13.226l30.444,0.004c1.754,0,3.399,0.68,4.632,1.914
	c1.241,1.241,1.921,2.891,1.921,4.642s-0.68,3.398-1.934,4.648l-15.72,15.896l-5.789,6.354c-1.25,2.048-1.919,4.403-1.919,6.868
	C38.19,84.064,44.122,90,51.413,90h22.026c7.293,0,13.228-5.936,13.228-13.225C86.667,69.482,80.732,63.552,73.439,63.552z
	 M53.211,27.872l-1.894,1.914l-24.76-0.002c-3.615,0-6.558-2.941-6.558-6.561c0-3.613,2.944-6.556,6.558-6.556v0.001h22.03
	c3.614,0,6.558,2.944,6.558,6.556C55.146,24.974,54.464,26.622,53.211,27.872z M73.439,83.333H51.413
	c-3.617,0-6.557-2.942-6.557-6.556c0-1.752,0.684-3.398,1.934-4.648l1.892-1.911v-0.001h24.758c3.62,0,6.561,2.94,6.561,6.557
	C80,80.391,77.057,83.333,73.439,83.333z"/>
<path fill="#FFB74D" d="M44.724,36.452l-11.07,11.191c-5.153,5.156-5.149,13.548,0,18.701c1.797,1.803,4.025,3.024,6.456,3.562
	l5.789-6.354h-2.902c-1.753,0-3.395-0.681-4.624-1.918c-2.557-2.559-2.557-6.719,0.008-9.29L54.1,36.452H44.724z"/>
</svg>
